<?xml version="1.0" standalone="no"?>
<!DOCTYPE svg PUBLIC "-//W3C//DTD SVG 20010904//EN"
 "http://www.w3.org/TR/2001/REC-SVG-20010904/DTD/svg10.dtd">
<svg version="1.0" xmlns="http://www.w3.org/2000/svg"
 width="334.000000pt" height="334.000000pt" viewBox="0 0 334.000000 334.000000"
 preserveAspectRatio="xMidYMid meet">
<metadata>
Created by potrace 1.14, written by Peter Selinger 2001-2017
</metadata>
<g transform="translate(0.000000,334.000000) scale(0.100000,-0.100000)"
fill="#000000" stroke="none">
<path d="M1765 2653 c-234 -31 -420 -211 -433 -419 -10 -155 34 -243 254 -512
164 -199 199 -291 159 -413 -57 -170 -299 -239 -446 -126 -59 45 -81 93 -89
192 -10 130 -60 189 -159 189 -94 -1 -159 -63 -168 -163 -27 -300 253 -562
600 -561 165 1 342 75 460 193 177 178 221 398 121 615 -42 92 -94 165 -223
312 -188 214 -211 330 -77 391 83 38 139 14 206 -87 25 -37 58 -77 73 -88 38
-28 117 -28 155 1 27 20 27 22 30 142 l3 122 -36 49 c-86 118 -264 185 -430
163z"/>
</g>
</svg>
